<svg xmlns="http://www.w3.org/2000/svg" width="331.583" height="74.328" viewBox="0 0 331.583 74.328"><defs><style>.a,.c,.e{fill:#0f0a30;}.a{font-size:60px;font-family:Helvetica-Bold, Helvetica;font-weight:700;letter-spacing:-0.04em;}.b{fill:none;}.d,.e{stroke:none;}</style></defs><g transform="translate(-280.417 -559.402)"><g transform="translate(-131 424)"><text class="a" transform="translate(473 143)"><tspan x="0" y="46">devwork</tspan></text></g><g transform="translate(-211.095 208.36)"><g class="b" transform="translate(521.343 370.337) rotate(45)"><path class="d" d="M35.641,1.121s-.8,22.537-9.5,32.759S.835,42.01.835,42.01-2.9,16.164,5.422,6.289,35.641,1.121,35.641,1.121Z"/><path class="e" d="M 24.11833953857422 7.999996185302734 C 17.9687671661377 7.999996185302734 13.38408088684082 9.25532341003418 11.53985214233398 11.44409561157227 C 8.383905410766602 15.18961143493652 7.674636840820312 25.38516998291016 8.112577438354492 33.97863006591797 C 11.93427467346191 33.54659271240234 17.00412368774414 32.27239990234375 20.04972457885742 28.69450950622559 C 23.71279144287109 24.39127731323242 25.93544006347656 15.52669715881348 26.9730224609375 8.085159301757812 C 26.06497764587402 8.032386779785156 25.10541725158691 7.999996185302734 24.11833953857422 7.999996185302734 M 24.11833763122559 0 C 30.42621612548828 0 35.64138031005859 1.120838165283203 35.64138031005859 1.120838165283203 C 35.64138031005859 1.120838165283203 34.84309387207031 23.65778160095215 26.14152336120605 33.88006591796875 C 19.96749496459961 41.13313293457031 9.814586639404297 42.18653869628906 4.437372207641602 42.18653869628906 C 2.236066818237305 42.18653869628906 0.8351669311523438 42.010009765625 0.8351669311523438 42.010009765625 C 0.8351669311523438 42.010009765625 -2.898246765136719 16.16388130187988 5.422023773193359 6.289268493652344 C 9.68170166015625 1.233814239501953 17.501220703125 0 24.11833763122559 0 Z"/></g><path class="c" d="M38.028,1.057s-.852,21.262-10.136,30.905-27,7.67-27,7.67-3.983-24.384,4.894-33.7S38.028,1.057,38.028,1.057Z" transform="translate(519.655 351.042) rotate(45)"/></g></g></svg>